<?xml version="1.0" encoding="iso-8859-1"?>
<!-- Generator: Adobe Illustrator 17.1.0, SVG Export Plug-In . SVG Version: 6.00 Build 0)  -->
<!DOCTYPE svg PUBLIC "-//W3C//DTD SVG 1.1//EN" "http://www.w3.org/Graphics/SVG/1.1/DTD/svg11.dtd">
<svg version="1.1" id="Capa_1" xmlns="http://www.w3.org/2000/svg" xmlns:xlink="http://www.w3.org/1999/xlink" x="0px" y="0px"
	 viewBox="0 0 465 465" style="enable-background:new 0 0 465 465;" xml:space="preserve">
<g>
	<path d="M197.585,366.736c0.004-0.004,0.008-0.009,0.012-0.014l26.178-26.178l0,0l13.81-13.81
		c11.776-11.775,18.262-27.432,18.262-44.086v-18.279c0.006-0.161,0.005-0.322,0-0.482V7.5c0-4.143-3.357-7.5-7.5-7.5H138.655
		c-4.143,0-7.5,3.357-7.5,7.5v249.324l-21.735,21.735c-0.002,0.002-0.004,0.003-0.006,0.005c-0.002,0.002-0.003,0.004-0.005,0.006
		L69.42,318.558c-0.003,0.002-0.005,0.005-0.008,0.007s-0.005,0.005-0.007,0.008L29.41,358.567
		C17.634,370.343,11.149,386,11.149,402.653c0.001,16.653,6.486,32.31,18.262,44.085C41.186,458.515,56.842,465,73.497,465
		c16.653,0,32.31-6.485,44.086-18.261l39.994-39.995c0.002-0.002,0.005-0.004,0.007-0.006s0.004-0.004,0.006-0.007l39.982-39.983
		C197.576,366.744,197.581,366.741,197.585,366.736z M152.28,390.827l-66.957-66.958l29.394-29.394l66.957,66.957L152.28,390.827z
		 M112.279,430.828L45.32,363.871l29.395-29.394l66.957,66.958L112.279,430.828z M125.324,283.868l14.481-14.481l30.206,12.511
		c0.938,0.39,1.91,0.573,2.867,0.573c2.943,0,5.735-1.744,6.932-4.632c1.586-3.827-0.231-8.214-4.059-9.799l-29.598-12.259v-20.48
		h94.692v19.679c-1.432-0.133-2.873-0.208-4.321-0.208c-25.521,0-46.282,20.762-46.282,46.282c0,13.832,6.125,26.682,16.436,35.372
		l-14.399,14.398L125.324,283.868z M240.847,220.302h-94.692v-41.57h94.692V220.302z M240.847,107.16h-42.192
		c-4.143,0-7.5,3.357-7.5,7.5s3.357,7.5,7.5,7.5h42.192v41.571h-94.692V122.16h22.5c4.143,0,7.5-3.357,7.5-7.5s-3.357-7.5-7.5-7.5
		h-22.5V65.59h94.692V107.16z M226.979,316.127l-9.629,9.629c-7.567-5.869-12.107-14.919-12.107-24.701
		c0-17.249,14.033-31.282,31.282-31.282c1.455,0,2.896,0.115,4.321,0.311v12.565C240.847,295.296,235.922,307.186,226.979,316.127z
		 M240.847,15v35.59h-94.692V15H240.847z M40.017,436.132c-8.942-8.942-13.867-20.832-13.868-33.479
		c0-10.109,3.155-19.73,8.986-27.753l66.115,66.114C93.227,446.845,83.606,450,73.497,450C60.849,450,48.959,445.075,40.017,436.132
		z"/>
	<path d="M453.847,263.887V7.5c0-4.143-3.357-7.5-7.5-7.5H336.655c-4.143,0-7.5,3.357-7.5,7.5v249.324l-21.735,21.735
		c-0.002,0.002-0.004,0.003-0.006,0.005c-0.002,0.002-0.003,0.004-0.005,0.006l-39.989,39.988c-0.003,0.002-0.005,0.005-0.008,0.007
		s-0.005,0.005-0.007,0.008l-39.995,39.994c-11.775,11.775-18.261,27.433-18.261,44.086c0.001,16.653,6.486,32.31,18.262,44.085
		C239.186,458.515,254.842,465,271.497,465c16.653,0,32.31-6.485,44.086-18.261l79.99-79.991c0.004-0.004,0.009-0.008,0.013-0.012
		s0.008-0.009,0.012-0.014l26.178-26.178l0,0l13.81-13.81c11.776-11.775,18.262-27.432,18.262-44.086v-18.279
		C453.853,264.208,453.852,264.047,453.847,263.887z M404.68,336.426l-14.399,14.398l-66.957-66.957l14.481-14.481l30.206,12.511
		c0.938,0.39,1.91,0.573,2.867,0.573c2.943,0,5.735-1.744,6.932-4.632c1.586-3.827-0.231-8.214-4.059-9.799l-29.598-12.259v-20.48
		h94.692v19.679c-1.432-0.133-2.873-0.208-4.321-0.208c-25.521,0-46.282,20.762-46.282,46.282
		C388.244,314.886,394.369,327.736,404.68,336.426z M350.279,390.827l-8.837-8.838c-2.929-2.929-7.678-2.93-10.606-0.001
		c-2.93,2.929-2.93,7.678-0.001,10.606l8.838,8.839l-29.394,29.395l-66.958-66.958l29.395-29.394l36.906,36.906
		c1.465,1.464,3.384,2.196,5.304,2.196c1.919,0,3.839-0.732,5.304-2.196c2.929-2.93,2.929-7.678,0-10.607l-36.905-36.906
		l29.394-29.394l66.957,66.957L350.279,390.827z M438.847,163.731h-12.5c-4.143,0-7.5,3.357-7.5,7.5s3.357,7.5,7.5,7.5h12.5v41.57
		h-94.692v-41.57h52.192c4.143,0,7.5-3.357,7.5-7.5s-3.357-7.5-7.5-7.5h-52.192V122.16h94.692V163.731z M438.847,15v35.59h-52.192
		c-4.143,0-7.5,3.357-7.5,7.5s3.357,7.5,7.5,7.5h52.192v41.57h-94.692V65.59h12.5c4.143,0,7.5-3.357,7.5-7.5s-3.357-7.5-7.5-7.5
		h-12.5V15H438.847z M238.017,436.132c-8.942-8.942-13.867-20.832-13.868-33.479c0-10.109,3.155-19.73,8.986-27.753l66.115,66.114
		c-8.023,5.831-17.644,8.986-27.753,8.986C258.849,450,246.959,445.075,238.017,436.132z M424.979,316.127l-9.629,9.629
		c-7.567-5.869-12.107-14.919-12.107-24.701c0-17.249,14.033-31.282,31.282-31.282c1.455,0,2.896,0.115,4.321,0.311v12.565
		C438.847,295.296,433.922,307.186,424.979,316.127z"/>
</g>
<g>
</g>
<g>
</g>
<g>
</g>
<g>
</g>
<g>
</g>
<g>
</g>
<g>
</g>
<g>
</g>
<g>
</g>
<g>
</g>
<g>
</g>
<g>
</g>
<g>
</g>
<g>
</g>
<g>
</g>
</svg>
