<?xml version="1.0" encoding="iso-8859-1"?>
<!-- Generator: Adobe Illustrator 19.0.0, SVG Export Plug-In . SVG Version: 6.00 Build 0)  -->
<svg version="1.1" id="Capa_1" xmlns="http://www.w3.org/2000/svg" xmlns:xlink="http://www.w3.org/1999/xlink" x="0px" y="0px"
	 viewBox="0 0 512 512" style="enable-background:new 0 0 512 512;" xml:space="preserve">
<g>
	<g>
		<path d="M420.303,134.478c-10.308-7.555-27.188-23.407-29.116-47.122C408.549,81.112,421,64.485,421,45c0-24.813-20.187-45-45-45
			H136c-24.813,0-45,20.187-45,45c0,19.485,12.451,36.112,29.813,42.356c-1.928,23.715-18.809,39.567-29.116,47.123
			C72.763,148.357,61,171.931,61,196v240c0,41.464,33.535,76,75,76h240c41.463,0,75-34.534,75-76V196
			C451,171.931,439.237,148.357,420.303,134.478z M136,30h240c8.271,0,15,6.729,15,15s-6.729,15-15,15H136c-8.271,0-15-6.729-15-15
			S127.729,30,136,30z M369.662,120H142.338c4.604-9.544,7.445-19.656,8.343-30h210.638
			C362.217,100.344,365.058,110.456,369.662,120z M421,436c0,24.935-20.607,46-45,46H136c-24.393,0-45-21.065-45-46V196
			c0-14.689,7.063-28.992,18.433-37.326c3.727-2.732,7.221-5.633,10.489-8.674h272.157c3.267,3.041,6.761,5.942,10.488,8.674
			C413.937,167.008,421,181.311,421,196V436z"/>
	</g>
</g>
<g>
	<g>
		<path d="M376,181c-24.813,0-45,20.187-45,45c0,6.982-4.801,12.848-11.271,14.512C298.641,222.141,271.098,211,241,211
			c-66.168,0-120,53.832-120,120s53.832,120,120,120s120-53.832,120-120c0-24.88-7.613-48.015-20.629-67.201
			C352.771,255.777,361,241.836,361,226c0-8.271,6.729-15,15-15c8.284,0,15-6.716,15-15S384.284,181,376,181z M209.5,407.5
			c-24.813,0-45-20.187-45-45s20.187-45,45-45s45,20.187,45,45S234.313,407.5,209.5,407.5z M258.384,419.309
			C274.357,405.544,284.5,385.19,284.5,362.5c0-41.355-33.645-75-75-75c-22.691,0-43.044,10.143-56.809,26.116
			C160.813,272.281,197.32,241,241,241c49.626,0,90,40.374,90,90C331,374.68,299.719,411.187,258.384,419.309z"/>
	</g>
</g>
<g>
	<g>
		<circle cx="209.5" cy="362.5" r="15"/>
	</g>
</g>
<g>
</g>
<g>
</g>
<g>
</g>
<g>
</g>
<g>
</g>
<g>
</g>
<g>
</g>
<g>
</g>
<g>
</g>
<g>
</g>
<g>
</g>
<g>
</g>
<g>
</g>
<g>
</g>
<g>
</g>
</svg>
