<?xml version="1.0" encoding="iso-8859-1"?>
<!-- Generator: Adobe Illustrator 19.0.0, SVG Export Plug-In . SVG Version: 6.00 Build 0)  -->
<svg version="1.1" id="Capa_1" xmlns="http://www.w3.org/2000/svg" xmlns:xlink="http://www.w3.org/1999/xlink" x="0px" y="0px"
	 viewBox="0 0 512.001 512.001" style="enable-background:new 0 0 512.001 512.001;" xml:space="preserve">
<g>
	<g>
		<path d="M498.779,160.334c-17.542-17.542-46.085-17.542-63.627,0c-0.036,0.036-0.072,0.072-0.107,0.109l-16.602,16.945
			c-2.141-4.277-4.968-8.232-8.448-11.713c-7.911-7.911-18.25-12.509-29.337-13.107c-0.589-10.674-4.945-21.176-13.081-29.312
			c-3.867-3.867-8.269-6.883-12.971-9.044l36.889-37.476c17.522-17.574,17.539-45.994-0.048-63.58
			c-17.541-17.542-46.085-17.543-63.628,0c-0.028,0.028-0.056,0.056-0.084,0.084L250.791,91.41
			c-42.064-38.612-110.676-17.744-123.654,38.496L87.847,300.162c-1.162,5.038,0.353,10.32,4.009,13.976l10.604,10.604
			l-26.885,26.885c-20.418-5.457-42.639,0.221-57.952,15.534c-23.502,23.501-23.407,61.431,0,84.837
			c7.223,7.223,16.472,12.795,27.039,15.578c2.679,10.143,7.942,19.404,15.38,26.841c23.446,23.445,61.39,23.447,84.837,0
			c15.313-15.313,20.99-37.538,15.534-57.952l26.885-26.885l10.604,10.605c4.337,4.338,10.877,5.595,16.513,3.18l137.846-59.077
			c8.808-3.774,16.709-9.124,23.544-15.959l122.974-124.367C516.362,206.38,516.365,177.919,498.779,160.334z M367.576,186.883
			c5.859-5.861,15.346-5.862,21.208,0c5.084,5.084,5.742,12.938,1.987,18.745l-23.202,23.679
			c-5.849,5.842-15.357,5.839-21.204-0.006c-5.848-5.847-5.848-15.362,0-21.209L367.576,186.883z M312.727,156.895l12.429-12.429
			c5.849-5.848,15.363-5.846,21.21,0c5.847,5.848,5.847,15.362,0,21.209l-21.21,21.209c-2.831,2.832-6.599,4.392-10.604,4.392
			c-0.002,0-0.004,0-0.006,0C318.476,180.104,317.866,167.682,312.727,156.895z M349.063,34.331
			c5.852-5.813,15.338-5.799,21.174,0.036c5.862,5.862,5.862,15.347,0,21.209c-0.028,0.028-0.056,0.056-0.084,0.084l-76.893,78.118
			l-21.209-21.209L349.063,34.331z M132.464,421.996c-4.494,4.494-5.668,11.334-2.928,17.07c5.469,11.445,3.11,25.166-5.866,34.142
			c-11.723,11.723-30.694,11.723-42.419,0c-1.923-1.923-3.419-3.943-4.597-5.972c9.655-2.766,18.508-7.939,25.807-15.237
			c5.857-5.857,5.857-15.352,0-21.209c-5.856-5.857-15.352-5.856-21.209,0c-5.629,5.628-13.099,8.741-21.053,8.781
			c-2.345-0.396-12.543,0.041-21.366-8.781c-11.677-11.677-11.775-30.643,0-42.418c0.001-0.001,0.002-0.002,0.003-0.003
			c8.977-8.975,22.695-11.334,34.14-5.866c5.735,2.74,12.576,1.568,17.069-2.927l33.625-33.624
			c4.496,4.496,37.922,37.922,42.419,42.419L132.464,421.996z M477.509,202.811L354.534,327.178
			c-4.065,4.065-8.806,7.275-14.091,9.54l-128.511,55.076l-92.988-92.988l37.42-162.157c7.953-34.466,50.644-46.707,75.654-21.697
			c8.927,8.928,30.88,30.88,50.721,50.721c5.846,5.847,5.846,15.359,0.002,21.207c-0.001,0.001-0.002,0.001-0.002,0.002
			c-0.001,0.001-0.001,0.002-0.002,0.003c-5.86,5.858-15.346,5.86-21.207-0.002c-26.45-26.45-12.256-12.256-42.419-42.418
			c-5.856-5.857-15.352-5.857-21.209,0c-5.125,5.125-5.766,13.035-1.922,18.856c2.002,3.03,9.983,9.145,16.666,23.19
			c0.06,0.122,0.108,0.248,0.172,0.368c4.611,9.831,7.048,20.636,7.048,31.817c0,20.029-7.799,38.86-21.963,53.023
			c-5.857,5.857-5.857,15.352,0,21.209c5.855,5.857,15.351,5.857,21.209,0c20.233-20.233,31.617-47.743,30.689-77.586
			c13.68,7.851,30.274,7.749,43.543,0.638c5.737,3.074,12.102,4.86,18.732,5.217c0.589,10.674,4.945,21.177,13.081,29.312
			c17.542,17.542,46.085,17.543,63.628,0c3.109-3.109,64.546-65.873,67.622-69.013c5.86-5.813,15.314-5.805,21.163,0.045
			C483.325,187.298,483.557,196.761,477.509,202.811z"/>
	</g>
</g>
<g>
</g>
<g>
</g>
<g>
</g>
<g>
</g>
<g>
</g>
<g>
</g>
<g>
</g>
<g>
</g>
<g>
</g>
<g>
</g>
<g>
</g>
<g>
</g>
<g>
</g>
<g>
</g>
<g>
</g>
</svg>
