<?xml version="1.0" encoding="iso-8859-1"?>
<!-- Generator: Adobe Illustrator 19.0.0, SVG Export Plug-In . SVG Version: 6.00 Build 0)  -->
<svg version="1.1" id="Capa_1" xmlns="http://www.w3.org/2000/svg" xmlns:xlink="http://www.w3.org/1999/xlink" x="0px" y="0px"
	 viewBox="0 0 512 512" style="enable-background:new 0 0 512 512;" xml:space="preserve">
<g>
	<g>
		<path d="M376,241c-2.188,0-237.459,0-240,0c-8.284,0-15,6.716-15,15v15c0,33.084,26.916,60,60,60s60-26.916,60-60h30
			c0,33.084,26.916,60,60,60s60-26.916,60-60v-15C391,247.716,384.284,241,376,241z M181,301c-16.542,0-30-13.558-30-30.1h60
			C211,287.442,197.542,301,181,301z M331,301c-16.542,0-30-13.558-30-30.1h60C361,287.442,347.542,301,331,301z"/>
	</g>
</g>
<g>
	<g>
		<path d="M322.708,392.583c-41.77-20.885-91.646-20.885-133.416,0c-7.41,3.705-10.413,12.715-6.708,20.125
			c3.704,7.409,12.713,10.413,20.124,6.708c33.369-16.685,73.215-16.685,106.584,0c7.411,3.706,16.42,0.699,20.124-6.708
			C333.121,405.299,330.118,396.289,322.708,392.583z"/>
	</g>
</g>
<g>
	<g>
		<path d="M497,241c-8.284,0-15,6.716-15,15v15h-31V75c0-41.355-33.645-75-75-75H136C94.645,0,61,33.645,61,75v196H30v-15
			c0-8.284-6.716-15-15-15s-15,6.716-15,15v60c0,8.284,6.716,15,15,15s15-6.716,15-15v-15h31v15c0,108.075,87.477,196,195,196
			s195-87.925,195-196v-15h31v15c0,8.284,6.716,15,15,15s15-6.716,15-15v-60C512,247.716,505.284,241,497,241z M421,316
			c0,91.532-74.019,166-165,166S91,407.533,91,316V151h30v15c0,8.284,6.716,15,15,15s15-6.716,15-15v-15h30v15
			c0,8.284,6.716,15,15,15s15-6.716,15-15v-15h30v15c0,8.284,6.716,15,15,15s15-6.716,15-15v-15h30v15c0,8.284,6.716,15,15,15
			s15-6.716,15-15v-15h30v15c0,8.284,6.716,15,15,15s15-6.716,15-15v-15h30V316z M421,121h-30v-16c0-8.284-6.716-15-15-15
			s-15,6.716-15,15v16h-30v-16c0-8.284-6.716-15-15-15s-15,6.716-15,15v16h-30v-16c0-8.284-6.716-15-15-15s-15,6.716-15,15v16h-30
			v-16c0-8.284-6.716-15-15-15s-15,6.716-15,15v16h-30v-16c0-8.284-6.716-15-15-15s-15,6.716-15,15v16H91V75
			c0-24.813,20.187-45,45-45h240c24.813,0,45,20.187,45,45V121z"/>
	</g>
</g>
<g>
</g>
<g>
</g>
<g>
</g>
<g>
</g>
<g>
</g>
<g>
</g>
<g>
</g>
<g>
</g>
<g>
</g>
<g>
</g>
<g>
</g>
<g>
</g>
<g>
</g>
<g>
</g>
<g>
</g>
</svg>
